<svg data-v-423bf9ae="" xmlns="http://www.w3.org/2000/svg" viewBox="0 0 308.9535740604274 165" class="iconAbove"><!----><!----><!----><g data-v-423bf9ae="" id="ce7c6f1b-8e6e-42af-8e36-f0ca1518e542" fill="white" transform="matrix(5.659543037414551,0,0,5.659543037414551,-3.8025143146514893,104.04485321044922)"><path d="M0.67 5.73C0.67 7.36 1.16 8.68 2.00 9.52C2.87 10.39 4.24 10.71 5.81 10.71C6.93 10.71 8.22 10.40 8.89 10.04L9.09 7.70L8.67 7.70C8.27 9.16 7.56 10.22 5.73 10.22C2.84 10.22 2.24 7.38 2.24 5.68C2.24 3.39 3.15 1.09 5.75 1.09C7.18 1.09 8.18 1.68 8.44 3.33L8.86 3.33L8.86 1.15C8.23 0.85 7.17 0.60 5.89 0.60C4.17 0.60 2.79 1.11 1.95 2.04C1.15 2.94 0.67 4.14 0.67 5.73ZM9.86 10.50L13.27 10.50L13.27 10.09C12.28 10.02 12.22 10.00 12.22 9.28L12.22 0.20L12.12 0.11L9.93 0.46L9.93 0.81L10.46 0.87C10.82 0.91 10.91 0.98 10.91 1.51L10.91 9.28C10.91 10.00 10.86 10.02 9.86 10.09ZM14.17 7.13C14.17 9.34 15.12 10.67 17.40 10.67C18.96 10.67 19.75 9.80 20.13 8.69L19.71 8.47C19.32 9.28 18.79 9.95 17.68 9.95C15.95 9.95 15.60 8.27 15.62 6.82L19.66 6.82C19.95 6.82 20.22 6.75 20.22 6.29C20.22 5.46 19.95 3.47 17.39 3.47C15.20 3.47 14.17 5.03 14.17 7.13ZM15.64 6.29C15.64 5.71 15.85 3.96 17.30 3.96C18.61 3.96 18.76 5.29 18.76 5.84C18.76 6.10 18.68 6.29 18.28 6.29ZM21.36 8.68C21.36 9.73 22.06 10.67 23.38 10.67C24.19 10.67 25.02 10.12 25.47 9.83C25.66 10.35 25.89 10.67 26.38 10.67C26.89 10.67 27.50 10.51 28.03 10.25L27.94 9.91C27.75 9.95 27.44 9.98 27.23 9.93C26.98 9.87 26.74 9.60 26.74 8.72L26.74 5.33C26.74 4.52 26.56 3.47 24.44 3.47C22.86 3.47 21.62 4.30 21.62 5.07C21.62 5.52 22.13 5.73 22.40 5.73C22.69 5.73 22.78 5.57 22.85 5.33C23.16 4.30 23.73 3.96 24.29 3.96C24.84 3.96 25.48 4.24 25.48 5.36L25.48 5.95C25.13 6.31 23.77 6.66 22.67 7.01C21.66 7.32 21.36 8.02 21.36 8.68ZM22.78 8.48C22.78 7.83 23.09 7.49 23.87 7.20C24.43 6.99 25.17 6.72 25.48 6.52L25.48 8.50C25.48 9.63 24.61 9.93 24.07 9.93C23.20 9.93 22.78 9.31 22.78 8.48ZM28.45 10.50L31.86 10.50L31.86 10.09C30.87 10.02 30.81 10.00 30.81 9.28L30.81 6.01C30.81 5.66 30.84 5.46 30.95 5.24C31.25 4.69 31.88 4.23 32.62 4.23C33.57 4.23 34.09 4.76 34.09 5.98L34.09 9.28C34.09 10.00 34.05 10.02 33.04 10.09L33.04 10.50L36.46 10.50L36.46 10.09C35.46 10.02 35.41 10.00 35.41 9.28L35.41 5.70C35.41 4.28 34.64 3.47 33.35 3.47C32.31 3.47 31.67 3.98 30.80 4.54L30.60 3.47L28.52 3.82L28.52 4.17L29.05 4.24C29.41 4.30 29.50 4.37 29.50 4.87L29.50 9.28C29.50 10.00 29.46 10.02 28.45 10.09ZM37.16 10.50L41.52 10.50C45.82 10.50 46.90 7.99 46.90 5.49C46.90 3.19 45.88 0.81 41.80 0.81L37.16 0.81L37.16 1.22C38.39 1.30 38.42 1.33 38.42 2.11L38.42 9.20C38.42 9.98 38.39 10.01 37.16 10.09ZM39.80 8.75L39.80 2.10C39.80 1.37 39.93 1.30 41.43 1.30C44.39 1.30 45.33 3.18 45.33 5.54C45.33 9.07 43.61 10.01 41.26 10.01C40.04 10.01 39.80 9.86 39.80 8.75ZM47.85 0.81L48.38 0.87C48.75 0.91 48.83 0.98 48.83 1.51L48.83 10.56L49.08 10.67L49.64 10.12C50.13 10.40 50.72 10.67 51.77 10.67C53.63 10.67 55.26 9.77 55.26 6.92C55.26 6.05 55.08 3.47 52.56 3.47C51.49 3.47 50.67 4.16 50.15 4.47L50.15 0.20L50.05 0.11L47.85 0.46ZM50.15 8.22L50.15 6.01C50.15 5.66 50.18 5.43 50.29 5.21C50.62 4.54 51.21 4.23 52.00 4.23C52.57 4.23 53.80 4.56 53.80 7C53.80 9.06 53.17 10.18 51.79 10.18C51.04 10.18 50.50 9.80 50.25 9.10C50.16 8.85 50.15 8.55 50.15 8.22Z"></path></g><!----><g data-v-423bf9ae="" id="9a9c9cff-b4c2-4b98-9233-af92a0762e20" transform="matrix(1.0092014074325562,0,0,1.0092014074325562,104.53993225097656,-3.8741328716278076)" stroke="none" fill="white"><path fill-rule="evenodd" clip-rule="evenodd" d="M28.771 17.173c5.02 1.652 10.008 3.406 15.067 4.925 5.057 1.516 10.115 3.476 15.299 4.009 6.457.665 12.558-4.046 14.61-10.262 1.062-3.222 2.696-2.23 4.53-1.064 7.34 4.669 11.965 11.562 14.427 19.615 1.563 5.117 1.782 10.681 2.272 16.075.271 2.974-1.71 4.844-4.278 6.18-14.588 7.593-27.94 4.734-41.068-4.049-7.153-4.785-14.787-9.067-22.696-12.418-4.031-1.708-9.145-1.073-13.771-1.102-5.128-.03-6.927-1.898-4.908-6.463 4.152-9.393 8.605-14.57 20.516-15.446z"></path><path fill-rule="evenodd" clip-rule="evenodd" d="M5.006 54.279c-.057-7.91.199-7.67 5.821-8.992 11.541-2.715 20.914 1.757 29.956 7.999 6.697 4.621 13.166 9.583 21.258 11.819 8.952 2.476 17.654 2.253 26.341-1.026 1.229-.463 2.712-.253 4.077-.354-.207 1.363-.17 2.824-.66 4.075-5.368 13.711-21.246 16.426-34.401 10.659-3.896-1.708-7.819-3.488-11.901-4.616-8.061-2.228-15.919 1.389-19.252 8.956-1.49 3.38-2.824 3.047-5.266 1.246C10.23 76.111 6.221 64.851 5.006 54.279z"></path><path fill-rule="evenodd" clip-rule="evenodd" d="M72.867 89.96c-5.53 1.722-10.052 3.428-14.719 4.514-7.909 1.84-15.677.96-23.056-2.482-4.632-2.162-5.158-7.041-1.304-10.342 3.779-3.238 8.233-3.479 12.464-1.9 7.835 2.926 15.173 7.26 23.797 7.833.587.038 1.121.91 2.818 2.377zM28.966 9.381c4.194-1.357 8.302-3.201 12.601-3.964 7.153-1.27 14.361-1.303 21.349 1.462 3.164 1.251 5.53 3.192 5.36 6.673-.173 3.499-2.896 5.705-6.016 6.109-3.469.449-7.273.376-10.602-.593-7.012-2.042-13.809-4.815-20.69-7.3-.586-.213-1.14-.517-1.71-.778-.096-.537-.195-1.073-.292-1.609z"></path></g><!----></svg>